<svg width="24" height="24" viewBox="0 0 24 24" fill="none" xmlns="http://www.w3.org/2000/svg">
<g clip-path="url(#clip0_41_987)">
<path d="M20.4839 3.51832C18.2171 1.25152 15.2064 0 11.9997 0C8.79297 0 5.78229 1.24649 3.51548 3.5133C-0.857293 7.88607 -1.17394 14.8725 2.72135 19.6071C2.18354 20.7079 1.54522 21.4417 0.831503 21.7935C0.394226 22.0096 0.147943 22.4821 0.21831 22.9646C0.293702 23.4521 0.665639 23.8291 1.15318 23.9045C1.41957 23.9447 1.70606 23.9698 2.0026 23.9698C3.47527 23.9698 5.02334 23.4622 6.31506 22.5726C8.05412 23.5074 10.0093 24 11.9997 24C15.2064 24 18.2171 22.7535 20.4839 20.4867C22.7507 18.2199 23.9972 15.2042 23.9972 12.0025C23.9972 8.80084 22.7507 5.78513 20.4839 3.51832ZM19.5239 19.5267C17.5134 21.5372 14.8395 22.6429 11.9997 22.6429C10.0998 22.6429 8.23506 22.1353 6.61161 21.1803C6.50606 21.12 6.38543 21.0848 6.26983 21.0848C6.12407 21.0848 5.97328 21.1351 5.85265 21.2255C4.31464 22.4168 2.76658 22.5927 2.08805 22.6077C2.89726 22.0046 3.5758 21.0697 4.14375 19.768C4.2493 19.5267 4.20407 19.2452 4.02815 19.0442C0.308781 14.8423 0.504802 8.43895 4.47548 4.46827C6.48595 2.4578 9.15988 1.35204 11.9997 1.35204C14.8445 1.35204 17.5134 2.4578 19.5239 4.46827C23.6755 8.62492 23.6755 15.3801 19.5239 19.5267Z" fill="white"/>
<path d="M15.0452 6.50385C13.9596 6.50385 12.9392 6.92604 12.1702 7.69505L11.9994 7.86594L11.8285 7.69505C11.0595 6.92604 10.0391 6.50385 8.95349 6.50385C7.87286 6.50385 6.85255 6.92604 6.08857 7.69002C5.31956 8.45903 4.89736 9.47934 4.90239 10.56C4.90239 11.6456 5.32961 12.6609 6.09359 13.4299L11.5168 18.8532C11.6475 18.9838 11.8234 19.0542 11.9943 19.0542C12.1652 19.0542 12.3411 18.9889 12.4718 18.8582L17.9101 13.44C18.6791 12.671 19.1013 11.6507 19.1013 10.57C19.1013 9.48437 18.6791 8.46406 17.9152 7.69505C17.1462 6.92604 16.1258 6.50385 15.0452 6.50385ZM16.9501 12.48L11.9943 17.4157L7.04857 12.4699C6.5359 11.9572 6.25443 11.2787 6.25443 10.5549C6.25443 9.83118 6.5359 9.15264 7.04354 8.645C7.55118 8.13735 8.22972 7.85589 8.95349 7.85589C9.67726 7.85589 10.3558 8.13735 10.8685 8.65002L11.5219 9.30343C11.7883 9.56981 12.2155 9.56981 12.4819 9.30343L13.1302 8.65505C13.6429 8.14238 14.3214 7.86091 15.0452 7.86091C15.764 7.86091 16.4425 8.14238 16.9552 8.65505C17.4678 9.16772 17.7493 9.84625 17.7443 10.565C17.7443 11.2888 17.4628 11.9673 16.9501 12.48Z" fill="white"/>
</g>
<defs>
<clipPath id="clip0_41_987">
<rect width="24" height="24" fill="white"/>
</clipPath>
</defs>
</svg>
