<svg width="24" height="24" viewBox="0 0 24 24" fill="none" xmlns="http://www.w3.org/2000/svg">
<g clip-path="url(#clip0_41_955)">
<path d="M23.9671 9.20213C23.8883 8.96076 23.6814 8.78835 23.4302 8.74894L15.9428 7.68495L12.5735 0.911861C12.4602 0.68527 12.2287 0.542419 11.9775 0.542419C11.7263 0.542419 11.4947 0.68527 11.3815 0.916787L8.05648 7.70958L0.569134 8.82283C0.317914 8.86224 0.111026 9.03465 0.0322121 9.27602C-0.0466021 9.51738 0.0223603 9.78338 0.204618 9.95579L5.63787 15.2216L4.38177 22.6794C4.33744 22.9306 4.44088 23.1818 4.64777 23.3296C4.76106 23.4133 4.89899 23.4576 5.03691 23.4576C5.14528 23.4576 5.24873 23.433 5.34724 23.3788L12.0317 19.8371L18.7358 23.3394C18.8343 23.3887 18.9378 23.4133 19.0412 23.4133C19.4057 23.4133 19.7062 23.1128 19.7062 22.7483C19.7062 22.6941 19.7013 22.6449 19.6865 22.5956L18.391 15.1822L23.7898 9.88682C23.9819 9.70949 24.0459 9.44349 23.9671 9.20213ZM17.2186 14.4778C17.061 14.6305 16.992 14.8521 17.0314 15.0689L18.1595 21.5365L12.3371 18.4973C12.145 18.3938 11.9135 18.3988 11.7164 18.4973L5.91372 21.571L7.00234 15.0935C7.03682 14.8767 6.96786 14.66 6.81023 14.5073L2.10108 9.93608L8.59833 8.97061C8.81507 8.93613 9.00225 8.80313 9.09584 8.60609L11.9824 2.70981L14.9084 8.59132C15.0069 8.78835 15.1941 8.92135 15.4108 8.95583L21.913 9.8819L17.2186 14.4778Z" fill="white"/>
</g>
<defs>
<clipPath id="clip0_41_955">
<rect width="24" height="24" fill="white"/>
</clipPath>
</defs>
</svg>
